# xmcd CD database file
# Copyright (C) 1993-1998 Ti Kan
#
# Track frame offsets:
#	150
#	16230
#	37500
#	69855
#	94070
#
# Disc length: 1563 seconds
#
# Revision: 1
# Processed by: cddbd v1.4b41PL1 Copyright (c) Steve Scherf et al.
# Submitted via: CDValet v3.31 - Copyright (c) 1997 Greg Leichner
#
DISCID=29061905
DTITLE=Freddie Jackson - Anthology Sampler
DYEAR=1900
DGENRE=
TTITLE0=Second Time For Love
TTITLE1=You Are My Lady
TTITLE2=Rock Me Tonight (For Old Times Sake)
TTITLE3=Love Me Down
TTITLE4=Do Me Again
EXTD=
EXTT0=
EXTT1=
EXTT2=
EXTT3=
EXTT4=
PLAYORDER=
